<svg xmlns="http://www.w3.org/2000/svg" width="24" height="24" fill="none">
  <path stroke="#FFDC73" stroke-linecap="round" stroke-linejoin="round" stroke-miterlimit="10" stroke-width="2" d="M18 10.7803v3.9919c0 .2595-.01.509-.0401.7485-.2302 2.6945-1.8222 4.0318-4.7559 4.0318h-.4005c-.2503 0-.4906.1197-.6408.3193l-1.2015 1.5968c-.5307.7085-1.39174.7085-1.92241 0l-1.20151-1.5968c-.13016-.1696-.42051-.3193-.64079-.3193H6.796c-3.19399 0-4.796-.7884-4.796-4.7803v-3.9919c0-2.92406 1.3517-4.51084 4.04506-4.74037C6.28536 6.00999 6.53567 6 6.796 6h6.408C16.398 6 18 7.59677 18 10.7803Z"/>
  <path stroke="#FFDC73" stroke-linecap="round" stroke-linejoin="round" stroke-miterlimit="10" stroke-width="2" d="M22 6.95274v4.13586c0 3.0399-1.3551 4.6736-4.0552 4.9114.0301-.2482.0401-.5066.0401-.7755v-4.1359c0-3.29834-1.606-4.95271-4.808-4.95271H6.75282c-.26098 0-.51192.01035-.75282.04137C6.23087 3.39587 7.82685 2 10.7679 2h6.4241C20.394 2 22 3.65437 22 6.95274Z"/>
  <path stroke="#FFDC73" stroke-linecap="round" stroke-linejoin="round" stroke-width="2" d="M13.4955 13.5h.009m-3.009 0h.009m-4.009 0h.009"/>
</svg>
