<svg width="20" height="20" viewBox="0 0 20 20" fill="none" xmlns="http://www.w3.org/2000/svg">
<path d="M10.1081 8C10.0405 7.99324 9.95946 7.99324 9.88513 8C8.27703 7.94588 7 6.62683 7 5.00338C7 3.34611 8.33784 2 10 2C11.6554 2 13 3.34611 13 5.00338C12.9932 6.62683 11.7162 7.94588 10.1081 8Z" stroke="#FFDC73" stroke-width="1.5" stroke-linecap="round" stroke-linejoin="round"/>
<path d="M5.59677 12.1142C3.46774 13.4294 3.46774 15.5726 5.59677 16.8797C8.01613 18.3734 11.9839 18.3734 14.4032 16.8797C16.5323 15.5645 16.5323 13.4213 14.4032 12.1142C11.9927 10.6286 8.02493 10.6286 5.59677 12.1142Z" stroke="#FFDC73" stroke-width="1.5" stroke-linecap="round" stroke-linejoin="round"/>
</svg>
