<svg width="101" height="23" viewBox="0 0 101 23" fill="none" xmlns="http://www.w3.org/2000/svg">
<path d="M8.77887 22.1134C7.09887 22.1134 5.64887 21.8634 4.42887 21.3634C3.22887 20.8634 2.29887 20.1534 1.63887 19.2334C0.998872 18.3134 0.678872 17.2434 0.678872 16.0234C0.678872 14.8434 1.03887 13.7934 1.75887 12.8734C2.47887 11.9334 3.54887 11.2734 4.96887 10.8934C3.90887 10.5534 3.02887 9.96342 2.32887 9.12342C1.62887 8.28342 1.27887 7.27342 1.27887 6.09342C1.27887 4.99342 1.56887 4.01342 2.14887 3.15342C2.72887 2.29342 3.56887 1.62342 4.66887 1.14342C5.78887 0.643417 7.15887 0.393417 8.77887 0.393417C10.3789 0.393417 11.7389 0.643417 12.8589 1.14342C13.9789 1.62342 14.8289 2.29342 15.4089 3.15342C16.0089 4.01342 16.3089 4.99342 16.3089 6.09342C16.3089 7.27342 15.9489 8.27342 15.2289 9.09342C14.5289 9.89342 13.6489 10.4934 12.5889 10.8934C14.0089 11.3334 15.0789 11.9834 15.7989 12.8434C16.5189 13.6834 16.8789 14.7434 16.8789 16.0234C16.8789 17.2434 16.5589 18.3134 15.9189 19.2334C15.2789 20.1534 14.3489 20.8634 13.1289 21.3634C11.9289 21.8634 10.4789 22.1134 8.77887 22.1134ZM8.77887 18.3334C9.61887 18.3334 10.2989 18.2234 10.8189 18.0034C11.3589 17.7834 11.7489 17.4734 11.9889 17.0734C12.2489 16.6734 12.3789 16.2034 12.3789 15.6634C12.3789 14.7634 12.0389 14.0534 11.3589 13.5334C10.6989 12.9934 9.83887 12.6434 8.77887 12.4834C7.71887 12.6434 6.84887 12.9934 6.16887 13.5334C5.50887 14.0534 5.17887 14.7634 5.17887 15.6634C5.17887 16.2034 5.30887 16.6734 5.56887 17.0734C5.84887 17.4734 6.24887 17.7834 6.76887 18.0034C7.30887 18.2234 7.97887 18.3334 8.77887 18.3334ZM8.77887 9.42342C9.67887 9.26342 10.4089 8.95342 10.9689 8.49342C11.5289 8.01342 11.8089 7.35342 11.8089 6.51342C11.8089 5.73342 11.5389 5.15342 10.9989 4.77342C10.4789 4.37342 9.73887 4.17342 8.77887 4.17342C7.83887 4.17342 7.09887 4.37342 6.55887 4.77342C6.03887 5.15342 5.77887 5.73342 5.77887 6.51342C5.77887 7.35342 6.04887 8.01342 6.58887 8.49342C7.14887 8.95342 7.87887 9.26342 8.77887 9.42342ZM27.1961 22.1134C25.8761 22.1134 24.7461 21.9434 23.8061 21.6034C22.8661 21.2634 22.0961 20.8034 21.4961 20.2234C20.8961 19.6434 20.4461 18.9834 20.1461 18.2434C19.8661 17.5034 19.7161 16.7234 19.6961 15.9034H24.1961C24.2561 16.6234 24.5261 17.2134 25.0061 17.6734C25.5061 18.1134 26.2361 18.3334 27.1961 18.3334C28.2961 18.3334 29.1161 18.0234 29.6561 17.4034C30.2161 16.7834 30.4961 15.8534 30.4961 14.6134C30.4961 13.7334 30.3461 13.0334 30.0461 12.5134C29.7461 11.9734 29.3461 11.5934 28.8461 11.3734C28.3461 11.1334 27.7961 11.0134 27.1961 11.0134C26.4961 11.0134 25.9161 11.1434 25.4561 11.4034C24.9961 11.6434 24.6261 11.9834 24.3461 12.4234H20.1461V0.753416H33.8261V4.47342H24.6461V8.31342C25.0661 7.93342 25.5761 7.66342 26.1761 7.50342C26.7761 7.34342 27.4661 7.26342 28.2461 7.26342C29.6061 7.26342 30.7861 7.53342 31.7861 8.07342C32.7861 8.61342 33.5661 9.43342 34.1261 10.5334C34.7061 11.6134 34.9961 12.9734 34.9961 14.6134C34.9961 16.1134 34.6661 17.4334 34.0061 18.5734C33.3661 19.6934 32.4661 20.5634 31.3061 21.1834C30.1461 21.8034 28.7761 22.1134 27.1961 22.1134ZM45.755 22.1134C44.615 22.1134 43.555 21.9234 42.575 21.5434C41.595 21.1634 40.735 20.5634 39.995 19.7434C39.255 18.9034 38.675 17.7834 38.255 16.3834C37.855 14.9834 37.655 13.2734 37.655 11.2534V10.6534C37.655 8.77342 37.855 7.18342 38.255 5.88342C38.675 4.58342 39.255 3.53342 39.995 2.73342C40.735 1.91342 41.595 1.32342 42.575 0.963417C43.555 0.583417 44.615 0.393417 45.755 0.393417C46.895 0.393417 47.955 0.583417 48.935 0.963417C49.915 1.32342 50.775 1.91342 51.515 2.73342C52.255 3.53342 52.825 4.58342 53.225 5.88342C53.645 7.18342 53.855 8.77342 53.855 10.6534V11.2534C53.855 13.2734 53.645 14.9834 53.225 16.3834C52.825 17.7834 52.255 18.9034 51.515 19.7434C50.775 20.5634 49.915 21.1634 48.935 21.5434C47.955 21.9234 46.895 22.1134 45.755 22.1134ZM45.755 18.3334C46.275 18.3334 46.745 18.2334 47.165 18.0334C47.605 17.8134 47.985 17.4434 48.305 16.9234C48.645 16.4034 48.905 15.6834 49.085 14.7634C49.265 13.8434 49.355 12.6734 49.355 11.2534V10.6534C49.355 8.95342 49.195 7.63342 48.875 6.69342C48.555 5.75342 48.125 5.10342 47.585 4.74342C47.045 4.36342 46.435 4.17342 45.755 4.17342C45.055 4.17342 44.435 4.36342 43.895 4.74342C43.375 5.10342 42.955 5.75342 42.635 6.69342C42.315 7.63342 42.155 8.95342 42.155 10.6534V11.2534C42.155 12.6734 42.245 13.8434 42.425 14.7634C42.605 15.6834 42.855 16.4034 43.175 16.9234C43.515 17.4434 43.905 17.8134 44.345 18.0334C44.785 18.2334 45.255 18.3334 45.755 18.3334Z" fill="#F4F4F4"/>
<path d="M70.1652 21.7534V4.47342H63.4152V0.753416H81.3852V4.47342H74.6352V21.7534H70.1652ZM84.4054 21.7534V0.753416H92.4754C94.3754 0.753416 95.9454 1.04342 97.1854 1.62342C98.4254 2.18342 99.3454 2.98342 99.9454 4.02342C100.545 5.04342 100.845 6.25342 100.845 7.65342C100.845 9.05342 100.545 10.2734 99.9454 11.3134C99.3454 12.3334 98.4254 13.1334 97.1854 13.7134C95.9454 14.2734 94.3754 14.5534 92.4754 14.5534H88.8754V21.7534H84.4054ZM88.8754 10.8334H92.0254C93.6254 10.8334 94.7454 10.5634 95.3854 10.0234C96.0454 9.48342 96.3754 8.69342 96.3754 7.65342C96.3754 6.63342 96.0454 5.85342 95.3854 5.31342C94.7454 4.75342 93.6254 4.47342 92.0254 4.47342H88.8754V10.8334Z" fill="#FFDC73"/>
</svg>
